<?xml version="1.0" encoding="utf-8"?>
<!-- Generator: Adobe Illustrator 27.0.1, SVG Export Plug-In . SVG Version: 6.00 Build 0)  -->
<svg version="1.1" xmlns="http://www.w3.org/2000/svg" xmlns:xlink="http://www.w3.org/1999/xlink" x="0px" y="0px"
	 viewBox="0 0 40 40" style="enable-background:new 0 0 40 40;" xml:space="preserve">
<style type="text/css">
	.st0{display:none;}
	.st1{display:inline;}
	.st2{display:inline;fill:#FFFFFF;}
	.st3{fill:#FFFFFF;}
	.st4{fill-rule:evenodd;clip-rule:evenodd;fill:#FFFFFF;}
</style>
<g id="Layer_4" class="st0">
	<rect x="-1.1" y="-0.2" class="st1" width="41.5" height="40.5"/>
	<path class="st2" d="M35.1,30.1v5.6l-5-2.8H10.9c-2.2,0-3.8-0.8-5-2.6c-0.7-1-1-2.1-1-3.3v-15c0-2.1,0.9-3.7,2.6-4.9
		c1.1-0.7,2.2-1,3.4-1c0,0,6.4,0,19.3,0v4.9H11.9c-1,0-1.6,0.4-1.9,1.3c-0.1,0.3-0.1,0.5-0.1,0.7v13.1c0,0.9,0.4,1.5,1.3,1.9
		c0.3,0.1,0.5,0.1,0.7,0.1h18.3v-6.1h-3.3v-4.9h3.3v0h5L35.1,30.1L35.1,30.1z"/>
</g>
<g id="black">
	<rect x="-0.9" y="0" width="41" height="40.1"/>
</g>
<g id="Layer_5" class="st0">
	
		<image style="display:inline;overflow:visible;" width="500" height="500" xlink:href="E406390B6923C33E.jpg"  transform="matrix(7.680000e-02 0 0 7.680000e-02 0.9722 0.4369)">
	</image>
</g>
<g id="improved">
	<path class="st3" d="M23.5,18.3"/>
	<path class="st4" d="M34.6,16.8c-0.4-1.9-1.3-3.8-2.5-5.2c-0.4-0.5-1.2-1.3-1.6-1.7c-2.1-1.9-4.6-3.1-7.5-3.7
		c-1.2-0.2-3.2-0.4-4.4-0.3c-1.7,0.1-3.5,0.6-5,1.2c-1.8,0.8-3.7,2.2-5.1,3.6c-2.2,2.4-3.3,5-3.4,8c-0.1,2.3,0.9,5.1,2.5,7.2
		c0.9,1.1,2.1,2.2,3.5,3c0.6,0.4,2,1.1,2.6,1.3c2.4,0.9,4.9,1.1,7.5,0.7c0,0,0,0,0,0c0.2,0,0.3,0,0.3,0c0,0,0,0,0,0.1c0,0,0,0,0,0
		c0,0.1-0.1,0.7-0.3,1.5c-0.3,1.6-0.4,2.2-0.3,2.3c0.3,0.3,2.3-0.4,4.1-1.6c0.6-0.3,1.7-1.1,2-1.4c1.1-0.9,4-3.7,4.8-4.7
		c1.4-1.8,2.3-3.7,2.8-5.9C34.9,19.8,34.9,18.1,34.6,16.8z"/>
	<g id="XMLID_00000105409646925817626290000004228277987439791018_">
		<g>
			<path class="st3" d="M22,32.7c0.5-2.1,0.5-2.6,0.2-2.8c-0.1-0.1-0.3,0-1.2,0.1c-0.9,0.1-1.1,0.1-2.6,0.1c-1,0-1.6-0.1-2-0.1
				c-0.5-0.1-1.5-0.3-2.1-0.5c-0.9-0.3-2.2-1-3.4-1.8c-1-0.7-2.3-1.9-2.9-2.6C7,23.7,6.2,21.9,5.9,20c-0.1-0.5-0.1-1.6,0-2.1
				c0.2-1.6,0.8-3.4,1.6-4.6c0.3-0.5,1.1-1.6,1.6-2.2c0.6-0.7,1-1.1,2-1.8c1.7-1.2,2.4-1.6,3.9-2.1c0.9-0.3,1.7-0.5,3.3-0.7
				c0.4,0,1-0.1,1.7,0c1,0,1.2,0,2,0.1c1.6,0.2,2,0.3,3.8,1c0.5,0.2,1.3,0.6,1.9,0.9c1.6,0.9,3.3,2.5,4.4,4.1
				c0.3,0.5,0.9,1.6,1.1,2.1c0.6,1.6,0.9,3.2,0.8,4.8c-0.1,2.1-0.9,4.2-2.1,6c-0.6,0.9-1,1.4-2.1,2.4c-0.4,0.4-1.1,1-1.4,1.4
				c-1.6,1.5-2.6,2.4-4,3.2c-0.8,0.5-2.2,1.2-2.4,1.2C21.8,33.7,21.8,33.5,22,32.7z"/>
		</g>
		<g>
		</g>
	</g>
</g>
</svg>
